<?xml version="1.0" standalone="no"?>
<!DOCTYPE svg PUBLIC "-//W3C//DTD SVG 20010904//EN"
 "http://www.w3.org/TR/2001/REC-SVG-20010904/DTD/svg10.dtd">
<svg version="1.0" xmlns="http://www.w3.org/2000/svg"
 width="1915.000000pt" height="1914.000000pt" viewBox="0 0 1915.000000 1914.000000"
 preserveAspectRatio="xMidYMid meet">

<g transform="translate(0.000000,1914.000000) scale(0.100000,-0.100000)"
fill="#000000" stroke="none">
<path d="M9050 19119 c-1292 -53 -2081 -238 -3359 -785 -386 -166 -625 -287
-984 -501 -321 -191 -539 -340 -832 -567 -1337 -1038 -2324 -2207 -2892 -3428
-482 -1036 -802 -2088 -917 -3018 -42 -340 -47 -442 -53 -1035 -7 -769 9
-1162 68 -1615 275 -2137 1402 -4205 3139 -5760 1181 -1057 2610 -1820 4064
-2170 422 -102 830 -167 1321 -211 186 -17 1486 -24 1740 -10 1557 88 3142
642 4580 1602 887 592 1567 1232 2254 2124 512 664 880 1280 1169 1960 416
978 655 1908 768 2990 22 207 32 1265 15 1510 -84 1173 -402 2402 -911 3523
-310 679 -868 1511 -1505 2242 -157 179 -593 614 -779 776 -1576 1373 -3585
2245 -5466 2374 -165 11 -1142 11 -1420 -1z m720 -2664 c369 -60 682 -292 854
-633 70 -138 128 -342 142 -501 l7 -71 748 0 749 0 0 -744 0 -744 398 -5 c289
-4 425 -9 500 -21 113 -17 211 -40 223 -53 72 -74 124 -3213 100 -6086 -19
-2246 -51 -3306 -103 -3338 -99 -61 -2229 -107 -4433 -95 -1933 10 -3090 45
-3185 96 -19 10 -24 40 -40 235 -46 595 -70 2118 -70 4470 0 1625 9 2642 30
3480 19 765 46 1214 73 1241 11 11 116 35 222 50 79 11 220 17 503 21 l392 5
0 744 0 744 749 0 749 0 12 98 c74 591 448 1011 985 1106 108 19 279 19 395 1z"/>
<path d="M9453 15670 c-134 -44 -245 -152 -286 -279 -23 -73 -23 -201 2 -280
54 -175 194 -289 364 -299 197 -12 366 79 440 235 98 211 -4 503 -211 605 -58
29 -78 33 -157 35 -68 2 -105 -2 -152 -17z"/>
</g>
</svg>
